<svg xmlns="http://www.w3.org/2000/svg" xmlns:xlink="http://www.w3.org/1999/xlink" version="1.1" id="layer" x="0px" y="0px" style="enable-background:new 0 0 652 652;" xml:space="preserve" viewBox="26.9 274.5 600 104">
<style type="text/css">
	.st0{fill:#313942;}
</style>
<path class="st0" d="M165.5,315.2c0-2.1,3-4.3,8.9-4.3c7.6,0,14.9,5.7,14.9,5.7l8.9-8.6c0,0-6.7-10-22.8-10  c-12.9,0-24.4,6.9-24.4,17.3c0,20.2,32.9,13.9,32.9,21.4c0,2.4-3.3,3.9-8.7,3.9c-8.4,0-15.1-5.7-15.1-5.7l-8.8,8.6  c1.9,3.5,10.2,10,23.3,10c10.3,0,23.8-5.7,23.8-17C198.4,316.9,165.5,322.7,165.5,315.2z M417.5,298.2c-7.2,0-13.9,4.9-16.9,8.6  c-3.3-5.3-9.1-8.6-17-8.6c-6.3,0-11.1,3.7-14.1,6.8l-4.5-5.5h-9.1V352h14v-27c0-8.3,4.9-12.7,9.8-12.7c5,0,10,2.6,10,11.7v28.1h14.1  v-27c0-8.3,4.9-12.9,9.8-12.9c5,0,10,2.6,10,11.7v28.1h14.1v-33.3C437.7,307.3,430.5,298.2,417.5,298.2L417.5,298.2z M67.2,302.7  c-2.8-2.6-8.2-4.5-12.7-4.5c-15.2,0-27.6,12.3-27.6,27.6s12.3,27.6,27.6,27.6c6,0,11.7-2.6,15-5.2l3.1,3.8h9.6v-76.4L67.3,279  C67.3,279,67.2,302.7,67.2,302.7z M54.5,339.1c-7.4,0-13.5-6-13.5-13.5c0-7.4,6-13.5,13.5-13.5c5.4,0,10.1,3.1,12.2,7.8v11.3  C64.6,335.9,59.9,339.1,54.5,339.1z M473.9,298c-15.2,0-27.6,12.3-27.6,27.6s12.3,27.6,27.6,27.6c15.2,0,27.6-12.3,27.6-27.6  C501.5,310.5,489.2,298,473.9,298z M473.9,339.1c-7.4,0-13.5-6-13.5-13.5c0-7.4,6-13.5,13.5-13.5s13.5,6,13.5,13.5  C487.4,333.1,481.4,339.1,473.9,339.1z M599.3,298c-15.2,0-27.6,12.3-27.6,27.6s12.3,27.6,27.6,27.6c15.2,0,27.6-12.3,27.6-27.6  C626.9,310.5,614.6,298,599.3,298z M599.3,339.1c-7.4,0-13.5-6-13.5-13.5c0-7.4,6-13.5,13.5-13.5c7.4,0,13.5,6,13.5,13.5  C612.8,333.1,606.7,339.1,599.3,339.1z M207.5,299.4h14.1V352h-14.1V299.4z M214.6,274.5c4.7,0,8.6,3.8,8.6,8.6  c0,4.7-3.8,8.6-8.6,8.6s-8.6-3.8-8.6-8.6C206.1,278.3,209.9,274.5,214.6,274.5z M257.7,364.9c-6,0-12-1.6-17.1-4.9l-7.2,11.6  c7.3,4.5,15.7,6.9,24.3,6.9s17-2.4,24.3-6.9l-7.2-11.6C269.7,363.3,263.8,364.9,257.7,364.9z M548.4,302.7  c-2.8-2.6-8.2-4.5-12.7-4.5c-15.2,0-27.6,12.3-27.6,27.6s12.3,27.6,27.6,27.6c6,0,11.7-2.6,15-5.2l3.1,3.8h9.6v-76.4l-14.9,3.3  C548.5,278.9,548.4,302.7,548.4,302.7z M535.7,339.1c-7.4,0-13.5-6-13.5-13.5c0-7.4,6-13.5,13.5-13.5c5.4,0,10.1,3.1,12.2,7.8v11.3  C545.8,335.9,541.1,339.1,535.7,339.1z M324.6,298.2c-7.7,0-13.5,3.9-16.1,7.2l-4.8-5.8h-9.1v52.5h14.1V325  c0-8.8,5.7-12.7,11.5-12.7c5.5,0,10.6,2.6,10.6,11.7v28.1h14.1v-33.1C344.9,307.3,337.7,298.2,324.6,298.2L324.6,298.2z   M285.3,306.1v-7.9h-27.6c-15.2,0-27.6,12.3-27.6,27.6s12.3,27.6,27.6,27.6c15.2,0,27.6-12.3,27.6-27.6c0-5.8-1.8-11.2-4.9-15.6  C280.4,310.1,285.3,306.1,285.3,306.1z M257.7,339.1c-7.4,0-13.5-6-13.5-13.5c0-7.4,6-13.5,13.5-13.5c7.4,0,13.5,6,13.5,13.5  C271.2,333.1,265.2,339.1,257.7,339.1z M117.7,298c-15.1,0-27.2,11.5-27.2,27.7c0,16.6,12.2,27.7,28.7,27.7  c11.7,0,21.3-8.3,21.3-8.3l-8.1-10.1c0,0-6.2,5.3-13.7,5.3c-9.8,0-13-6-13.7-9.4h39.3c0-0.4,0.1-3.4,0.1-3.9  C144.5,312.9,136.9,298,117.7,298z M105,320.5c0.6-3.1,4.7-10.3,12.7-10.3c8.3,0,11.8,6.9,12.1,10.3  C129.8,320.5,105,320.5,105,320.5z" fill="#313942"/>
</svg>